<svg xmlns="http://www.w3.org/2000/svg" xmlns:xlink="http://www.w3.org/1999/xlink" width="24" height="24" viewBox="0 0 24 24">
  <defs>
    <filter id="Rectangle_421" x="-15" y="-12" width="54" height="54" filterUnits="userSpaceOnUse">
      <feOffset dy="3" input="SourceAlpha"/>
      <feGaussianBlur stdDeviation="5" result="blur"/>
      <feFlood flood-opacity="0.161"/>
      <feComposite operator="in" in2="blur"/>
      <feComposite in="SourceGraphic"/>
    </filter>
    <clipPath id="clip-path">
      <g transform="matrix(1, 0, 0, 1, 0, 0)" filter="url(#Rectangle_421)">
        <rect id="Rectangle_421-2" data-name="Rectangle 421" width="24" height="24" rx="12" transform="translate(0 0)" fill="#fff"/>
      </g>
    </clipPath>
  </defs>
  <g id="Mask_Group_17" data-name="Mask Group 17" transform="translate(0 0)" clip-path="url(#clip-path)">
    <g id="_0201d58bbb764b6" data-name="0201d58bbb764b6" transform="translate(3 2.816)">
      <path id="Path_1794" data-name="Path 1794" d="M312.9,250.549a7.87,7.87,0,0,0-.194-1.877h-8.622v3.408h5.061a4.488,4.488,0,0,1-1.878,2.98l-.017.114,2.726,2.112.189.019a8.979,8.979,0,0,0,2.735-6.755" transform="translate(-294.898 -241.161)" fill="#4285f4"/>
      <path id="Path_1795" data-name="Path 1795" d="M40.639,371.59a8.753,8.753,0,0,0,6.082-2.224l-2.9-2.245a5.435,5.435,0,0,1-3.184.918,5.529,5.529,0,0,1-5.224-3.816l-.108.009-2.835,2.194-.037.1a9.177,9.177,0,0,0,8.2,5.061" transform="translate(-31.455 -353.223)" fill="#34a853"/>
      <path id="Path_1796" data-name="Path 1796" d="M3.959,172.086a5.654,5.654,0,0,1-.306-1.816,5.941,5.941,0,0,1,.3-1.816l-.005-.122L1.073,166.1l-.094.045a9.164,9.164,0,0,0,0,8.245l2.98-2.306" transform="translate(0 -161.086)" fill="#fbbc05"/>
      <path id="Path_1797" data-name="Path 1797" d="M40.639,3.551a5.09,5.09,0,0,1,3.551,1.367l2.592-2.531A8.823,8.823,0,0,0,40.639,0a9.177,9.177,0,0,0-8.2,5.061L35.4,7.367a5.551,5.551,0,0,1,5.235-3.816" transform="translate(-31.455)" fill="#eb4335"/>
    </g>
  </g>
</svg>
