<svg id="_77dac496b3224fc" data-name="77dac496b3224fc" xmlns="http://www.w3.org/2000/svg" width="24" height="24" viewBox="0 0 24 24">
  <path id="Path_2520" data-name="Path 2520" d="M924.224,77.8h-3.556V72.235c0-1.328-.024-3.038-1.85-3.038-1.852,0-2.135,1.447-2.135,2.941V77.8h-3.556V66.351h3.414v1.565h.048a3.741,3.741,0,0,1,3.368-1.85c3.6,0,4.269,2.371,4.269,5.455ZM909.115,64.786a2.064,2.064,0,1,1,2.063-2.064,2.064,2.064,0,0,1-2.063,2.064M910.893,77.8h-3.56V66.351h3.56ZM926,57.356H905.546a1.751,1.751,0,0,0-1.771,1.73V79.623a1.753,1.753,0,0,0,1.771,1.732H926a1.756,1.756,0,0,0,1.778-1.732V59.085A1.755,1.755,0,0,0,926,57.355" transform="translate(-903.775 -57.355)" fill="#0a66c2"/>
</svg>
